<svg width="26" height="26" viewBox="0 0 26 26" fill="none" xmlns="http://www.w3.org/2000/svg">
<g id="settings" clip-path="url(#clip0_216_464)">
<path id="Vector" d="M12.8796 16.1296C14.6746 16.1296 16.1296 14.6746 16.1296 12.8796C16.1296 11.0847 14.6746 9.62963 12.8796 9.62963C11.0847 9.62963 9.62963 11.0847 9.62963 12.8796C9.62963 14.6746 11.0847 16.1296 12.8796 16.1296Z" stroke="#FCFCFC" stroke-width="2" stroke-linecap="round" stroke-linejoin="round"/>
<path id="Vector_2" d="M20.8963 16.1296C20.7521 16.4564 20.7091 16.8188 20.7728 17.1703C20.8365 17.5217 21.004 17.846 21.2538 18.1013L21.3188 18.1663C21.5202 18.3675 21.6801 18.6065 21.7891 18.8695C21.8981 19.1325 21.9542 19.4145 21.9542 19.6992C21.9542 19.9839 21.8981 20.2659 21.7891 20.5289C21.6801 20.7919 21.5202 21.0309 21.3188 21.2321C21.1176 21.4336 20.8786 21.5934 20.6156 21.7024C20.3526 21.8115 20.0706 21.8676 19.7859 21.8676C19.5011 21.8676 19.2192 21.8115 18.9562 21.7024C18.6931 21.5934 18.4542 21.4336 18.253 21.2321L18.188 21.1671C17.9326 20.9174 17.6084 20.7498 17.2569 20.6861C16.9055 20.6224 16.543 20.6654 16.2163 20.8096C15.8959 20.947 15.6226 21.175 15.4301 21.4656C15.2376 21.7563 15.1344 22.0969 15.133 22.4455V22.6296C15.133 23.2043 14.9047 23.7554 14.4984 24.1617C14.092 24.568 13.5409 24.7963 12.9663 24.7963C12.3917 24.7963 11.8406 24.568 11.4342 24.1617C11.0279 23.7554 10.7996 23.2043 10.7996 22.6296V22.5321C10.7912 22.1736 10.6752 21.8258 10.4665 21.5341C10.2579 21.2423 9.96626 21.0201 9.62963 20.8963C9.30288 20.7521 8.94042 20.7091 8.58899 20.7728C8.23756 20.8365 7.91328 21.004 7.65796 21.2538L7.59296 21.3188C7.39173 21.5202 7.15278 21.6801 6.88975 21.7891C6.62672 21.8981 6.34478 21.9543 6.06004 21.9543C5.77531 21.9543 5.49337 21.8981 5.23034 21.7891C4.96731 21.6801 4.72835 21.5202 4.52713 21.3188C4.32568 21.1176 4.16587 20.8786 4.05683 20.6156C3.94779 20.3526 3.89167 20.0706 3.89167 19.7859C3.89167 19.5011 3.94779 19.2192 4.05683 18.9562C4.16587 18.6931 4.32568 18.4542 4.52713 18.253L4.59213 18.188C4.84187 17.9326 5.00941 17.6084 5.07313 17.2569C5.13685 16.9055 5.09383 16.543 4.94963 16.2163C4.8123 15.8959 4.58428 15.6226 4.29363 15.4301C4.00298 15.2376 3.66239 15.1344 3.31379 15.133H3.12963C2.55499 15.133 2.00389 14.9047 1.59756 14.4984C1.19123 14.092 0.962959 13.5409 0.962959 12.9663C0.962959 12.3917 1.19123 11.8406 1.59756 11.4342C2.00389 11.0279 2.55499 10.7996 3.12963 10.7996H3.22713C3.5857 10.7912 3.93346 10.6752 4.2252 10.4665C4.51694 10.2579 4.73915 9.96626 4.86296 9.62963C5.00717 9.30288 5.05018 8.94042 4.98646 8.58899C4.92274 8.23756 4.75521 7.91328 4.50546 7.65796L4.44046 7.59296C4.23901 7.39174 4.0792 7.15278 3.97016 6.88975C3.86113 6.62672 3.805 6.34478 3.805 6.06005C3.805 5.77531 3.86113 5.49337 3.97016 5.23034C4.0792 4.96731 4.23901 4.72835 4.44046 4.52713C4.64168 4.32568 4.88064 4.16587 5.14367 4.05683C5.4067 3.9478 5.68864 3.89168 5.97338 3.89168C6.25811 3.89168 6.54005 3.9478 6.80308 4.05683C7.06611 4.16587 7.30507 4.32568 7.50629 4.52713L7.57129 4.59213C7.82661 4.84188 8.15089 5.00941 8.50232 5.07313C8.85375 5.13686 9.21621 5.09384 9.54296 4.94963H9.62963C9.95004 4.8123 10.2233 4.58428 10.4158 4.29363C10.6083 4.00299 10.7116 3.6624 10.713 3.3138V3.12963C10.713 2.55499 10.9412 2.00389 11.3476 1.59757C11.7539 1.19124 12.305 0.962963 12.8796 0.962963C13.4543 0.962963 14.0054 1.19124 14.4117 1.59757C14.818 2.00389 15.0463 2.55499 15.0463 3.12963V3.22713C15.0477 3.57573 15.151 3.91632 15.3435 4.20697C15.5359 4.49762 15.8092 4.72564 16.1296 4.86296C16.4564 5.00717 16.8188 5.05019 17.1703 4.98647C17.5217 4.92275 17.846 4.75521 18.1013 4.50546L18.1663 4.44046C18.3675 4.23901 18.6065 4.0792 18.8695 3.97017C19.1325 3.86113 19.4145 3.80501 19.6992 3.80501C19.9839 3.80501 20.2659 3.86113 20.5289 3.97017C20.7919 4.0792 21.0309 4.23901 21.2321 4.44046C21.4336 4.64169 21.5934 4.88065 21.7024 5.14368C21.8115 5.40671 21.8676 5.68865 21.8676 5.97338C21.8676 6.25811 21.8115 6.54005 21.7024 6.80308C21.5934 7.06611 21.4336 7.30507 21.2321 7.5063L21.1671 7.5713C20.9174 7.82662 20.7498 8.1509 20.6861 8.50233C20.6224 8.85375 20.6654 9.21621 20.8096 9.54296V9.62963C20.947 9.95005 21.175 10.2233 21.4656 10.4158C21.7563 10.6083 22.0969 10.7116 22.4455 10.713H22.6296C23.2043 10.713 23.7554 10.9412 24.1617 11.3476C24.568 11.7539 24.7963 12.305 24.7963 12.8796C24.7963 13.4543 24.568 14.0054 24.1617 14.4117C23.7554 14.818 23.2043 15.0463 22.6296 15.0463H22.5321C22.1835 15.0477 21.8429 15.151 21.5523 15.3435C21.2616 15.5359 21.0336 15.8092 20.8963 16.1296Z" stroke="#FCFCFC" stroke-width="2" stroke-linecap="round" stroke-linejoin="round"/>
</g>
<defs>
<clipPath id="clip0_216_464">
<rect width="26" height="26" fill="white"/>
</clipPath>
</defs>
</svg>
